# xmcd CD database file
#
# Track frame offsets:
#	150
#	23352
#	48885
#	72292
#	93725
#	119905
#	145665
#	171192
#	191402
#	214890
#	232802
#
# Disc length: 3404 seconds
#
# Revision: 6
# Processed by: cddbd v1.5.1PL0 Copyright (c) Steve Scherf et al.
# Submitted via: CDex 1.60beta1
#
DISCID=950d4a0b
DTITLE=Joe Sample and Lalah Hathaway - The Song Lives On extended Titles
DYEAR=1999
DGENRE=Jazz
TTITLE0=dies
TTITLE1=ist
TTITLE2=eine 
TTITLE3=Geheimbotschaft
TTITLE4=bitte 
TTITLE5=nicht
TTITLE6=weitersagen
TTITLE7=hallo
TTITLE8=du
TTITLE9=downy@gmx.net
TTITLE10=A Long Way From Home
EXTD=YEAR: 1999
EXTT0=
EXTT1=
EXTT2=
EXTT3=
EXTT4=
EXTT5=
EXTT6=
EXTT7=
EXTT8=
EXTT9=
EXTT10=
PLAYORDER=
